HIERARCHY
ROOT joint_Root
{
	OFFSET 0.0 0.0 0.0
	CHANNELS 6 Xposition Yposition Zposition Zrotation Xrotation Yrotation 
	JOINT Hips
	{
		OFFSET -0.726466 93.3139 -2.00062
		CHANNELS 6 Xposition Yposition Zposition Zrotation Xrotation Yrotation 
		JOINT Spine
		{
			OFFSET 15.7357 0.0 0.0
			CHANNELS 6 Xposition Yposition Zposition Zrotation Xrotation Yrotation 
			JOINT Chest
			{
				OFFSET 8.98455 -0.406207 0.0
				CHANNELS 6 Xposition Yposition Zposition Zrotation Xrotation Yrotation 
				JOINT Neck
				{
					OFFSET 16.3773 0.0 0.0
					CHANNELS 6 Xposition Yposition Zposition Zrotation Xrotation Yrotation 
					JOINT Head
					{
						OFFSET 6.45672 0.0 0.0
						CHANNELS 6 Xposition Yposition Zposition Zrotation Xrotation Yrotation 
						End Site
						{
							OFFSET 0.0 0.0 0.0
						}
					}
				}
				JOINT Shoulder_L
				{
					OFFSET 12.9942 -0.242716 4.98039
					CHANNELS 6 Xposition Yposition Zposition Zrotation Xrotation Yrotation 
					JOINT UpperArm_L
					{
						OFFSET 5.34809 0.0 0.0
						CHANNELS 6 Xposition Yposition Zposition Zrotation Xrotation Yrotation 
						JOINT LowerArm_L
						{
							OFFSET 24.3286 1.87007e-05 0.0
							CHANNELS 6 Xposition Yposition Zposition Zrotation Xrotation Yrotation 
							JOINT Hand_L
							{
								OFFSET 22.2916 0.0 0.0
								CHANNELS 6 Xposition Yposition Zposition Zrotation Xrotation Yrotation 
								End Site
								{
									OFFSET 0.0 0.0 0.0
								}
							}
						}
					}
				}
				JOINT Shoulder_R
				{
					OFFSET 12.9945 -0.242716 -4.98039
					CHANNELS 6 Xposition Yposition Zposition Zrotation Xrotation Yrotation 
					JOINT UpperArm_R
					{
						OFFSET -5.34813 0.0 0.0
						CHANNELS 6 Xposition Yposition Zposition Zrotation Xrotation Yrotation 
						JOINT LowerArm_R
						{
							OFFSET -24.3289 0.000322201 0.0
							CHANNELS 6 Xposition Yposition Zposition Zrotation Xrotation Yrotation 
							JOINT Hand_R
							{
								OFFSET -22.2915 -0.000108084 0.0
								CHANNELS 6 Xposition Yposition Zposition Zrotation Xrotation Yrotation 
								End Site
								{
									OFFSET 0.0 0.0 0.0
								}
							}
						}
					}
				}
			}
		}
		JOINT UpperLeg_L
		{
			OFFSET -2.19248 -6.46944 0.0
			CHANNELS 6 Xposition Yposition Zposition Zrotation Xrotation Yrotation 
			JOINT LowerLeg_L
			{
				OFFSET 39.0811 0.0 -1.23785e-05
				CHANNELS 6 Xposition Yposition Zposition Zrotation Xrotation Yrotation 
				JOINT Foot_L
				{
					OFFSET 40.9854 0.0 -1.26872e-05
					CHANNELS 6 Xposition Yposition Zposition Zrotation Xrotation Yrotation 
					JOINT Toes_L
					{
						OFFSET 11.7543 0.0 0.0
						CHANNELS 6 Xposition Yposition Zposition Zrotation Xrotation Yrotation 
						End Site
						{
							OFFSET 0.0 0.0 0.0
						}
					}
				}
			}
		}
		JOINT UpperLeg_R
		{
			OFFSET -2.19251 6.46944 0.0
			CHANNELS 6 Xposition Yposition Zposition Zrotation Xrotation Yrotation 
			JOINT LowerLeg_R
			{
				OFFSET -39.0811 -0.00228153 -0.0401928
				CHANNELS 6 Xposition Yposition Zposition Zrotation Xrotation Yrotation 
				JOINT Foot_R
				{
					OFFSET -40.9854 0.0 0.0
					CHANNELS 6 Xposition Yposition Zposition Zrotation Xrotation Yrotation 
					JOINT Toes_R
					{
						OFFSET -11.7543 0.0 0.0
						CHANNELS 6 Xposition Yposition Zposition Zrotation Xrotation Yrotation 
						End Site
						{
							OFFSET 0.0 0.0 0.0
						}
					}
				}
			}
		}
	}
}
MOTION
Frames:	6
Frame Time:	0.0333333
0.000000 0.000000 0.000000 0.000000 0.000000 -0.000000 -0.168357 92.303200 -1.232850 87.922100 -0.161463 5.573890 15.735700 0.000005 -0.000001 87.115200 85.847400 -87.367600 8.984550 -0.406207 -0.000000 0.527912 -0.401920 -0.502642 16.377300 -0.000001 -0.000001 4.585410 -3.230560 2.979040 6.456720 -0.000001 -0.000000 8.177160 -4.200310 -1.338330 12.994200 -0.242716 4.980390 -89.559200 -1.378550 -72.264700 5.348090 -0.000007 -0.000001 -70.628900 38.096400 -11.052000 24.328600 0.000019 0.000005 1.591300 4.080360 -21.326100 22.291600 -0.000001 0.000005 5.686530 5.475760 -5.586980 12.994500 -0.242716 -4.980390 90.096800 -0.291942 -71.648100 -5.348130 -0.000001 -0.000004 -76.417000 -30.481200 -94.012300 -24.328900 0.000322 -0.000009 14.436800 1.240790 -85.193400 -22.291500 -0.000108 -0.000004 18.791800 5.329480 -0.770557 -2.192480 -6.469440 -0.000000 -175.397000 -6.985280 -1.821940 39.081100 -0.000007 -0.000012 -0.101404 0.234683 23.368700 40.985400 -0.000006 -0.000013 0.428112 4.836440 -66.241300 11.754300 -0.000000 0.000003 -0.000039 -0.000455 -16.595300 -2.192510 6.469440 -0.000001 179.337000 14.924300 -178.978000 -39.081100 -0.002282 -0.040193 -0.035353 0.107918 19.716000 -40.985400 0.000008 0.000006 3.494600 8.062790 -65.605500 -11.754300 -0.000006 -0.000006 -0.009004 -0.096039 -20.485000
0.000000 0.000000 0.000000 0.000000 0.000000 -0.000000 -0.153590 92.310600 -1.253130 87.924100 -0.146433 5.557620 15.735700 0.000005 -0.000001 86.968000 85.837100 -87.205800 8.984550 -0.406207 -0.000000 0.547395 -0.425270 -0.473220 16.377300 -0.000001 -0.000001 4.501180 -3.192220 2.959850 6.456720 -0.000001 -0.000000 8.134910 -4.170420 -1.353130 12.994200 -0.242716 4.980390 -89.565000 -1.359550 -72.253300 5.348090 -0.000007 -0.000001 -70.534800 38.144700 -11.228900 24.328600 0.000019 0.000005 1.527080 3.855500 -21.626400 22.291600 -0.000001 0.000005 5.529370 5.474350 -5.533500 12.994500 -0.242716 -4.980390 90.098600 -0.296518 -71.611600 -5.348130 -0.000001 -0.000004 -76.413200 -30.534200 -94.057900 -24.328900 0.000322 -0.000009 14.427100 1.245720 -85.171000 -22.291500 -0.000108 -0.000004 18.673100 5.329310 -0.765345 -2.192480 -6.469440 -0.000000 -175.420000 -6.938280 -1.836650 39.081100 -0.000007 -0.000012 -0.100724 0.233546 23.329600 40.985400 -0.000006 -0.000013 0.427258 4.793490 -66.206500 11.754300 -0.000000 0.000003 -0.000046 -0.000531 -16.598200 -2.192510 6.469440 -0.000001 179.328000 14.975200 -179.000000 -39.081100 -0.002282 -0.040193 -0.035265 0.107858 19.685000 -40.985400 0.000008 0.000006 3.507670 8.082420 -65.570300 -11.754300 -0.000006 -0.000006 -0.008741 -0.093979 -20.400800
0.000000 0.000000 0.000000 0.000000 0.000000 -0.000000 -0.127454 92.314000 -1.283570 87.954500 -0.115409 5.550250 15.735700 0.000005 -0.000001 86.806400 85.819600 -87.037400 8.984550 -0.406207 -0.000000 0.580989 -0.451149 -0.459307 16.377300 -0.000001 -0.000001 4.458190 -3.186460 2.976970 6.456720 -0.000001 -0.000000 8.010640 -4.097060 -1.416860 12.994200 -0.242716 4.980390 -89.572900 -1.336370 -72.272600 5.348090 -0.000007 -0.000001 -70.403100 38.318100 -11.401800 24.328600 0.000019 0.000005 1.507140 3.761370 -21.853600 22.291600 -0.000001 0.000005 5.618060 5.475590 -5.580620 12.994500 -0.242716 -4.980390 90.098000 -0.294276 -71.577700 -5.348130 -0.000001 -0.000004 -76.193600 -30.685600 -93.894500 -24.328900 0.000322 -0.000009 14.455500 1.213660 -85.304300 -22.291500 -0.000108 -0.000004 18.839800 5.326900 -0.695431 -2.192480 -6.469440 -0.000000 -175.479000 -6.908630 -1.862610 39.081100 -0.000007 -0.000012 -0.100419 0.233097 23.306600 40.985400 -0.000006 -0.000013 0.444809 4.781800 -66.169800 11.754300 -0.000000 0.000003 -0.000038 -0.000444 -16.594800 -2.192510 6.469440 -0.000001 179.292000 14.973100 -179.033000 -39.081100 -0.002282 -0.040193 -0.035052 0.107202 19.695100 -40.985400 0.000008 0.000006 3.451100 8.051320 -65.545300 -11.754300 -0.000006 -0.000006 -0.009091 -0.096717 -20.512700
0.000000 0.000000 0.000000 0.000000 0.000000 -0.000000 -0.095436 92.319100 -1.318760 87.936400 -0.097420 5.531530 15.735700 0.000005 -0.000001 86.509000 85.801600 -86.703200 8.984550 -0.406207 -0.000000 0.614436 -0.499016 -0.385513 16.377300 -0.000001 -0.000001 4.362280 -3.162940 2.964350 6.456720 -0.000001 -0.000000 7.920020 -4.006650 -1.523850 12.994200 -0.242716 4.980390 -89.583500 -1.304770 -72.292200 5.348090 -0.000007 -0.000001 -70.361400 38.427400 -11.530700 24.328600 0.000019 0.000005 1.481430 3.685380 -21.916400 22.291600 -0.000001 0.000005 5.640510 5.476610 -5.619030 12.994500 -0.242716 -4.980390 90.108600 -0.325490 -71.550500 -5.348130 -0.000001 -0.000004 -75.720700 -30.866400 -93.338300 -24.328900 0.000322 -0.000009 14.408500 1.102750 -85.717400 -22.291500 -0.000108 -0.000004 19.226300 5.326760 -0.691286 -2.192480 -6.469440 -0.000000 -175.484000 -6.934790 -1.917020 39.081100 -0.000007 -0.000012 -0.101189 0.234805 23.313600 40.985400 -0.000006 -0.000013 0.471908 4.799010 -66.144400 11.754300 -0.000000 0.000003 -0.000044 -0.000505 -16.597200 -2.192510 6.469440 -0.000001 179.312000 14.956100 -179.081000 -39.081100 -0.002282 -0.040193 -0.032852 0.101068 19.693500 -40.985400 0.000008 0.000006 3.547410 8.019570 -65.531100 -11.754300 -0.000006 -0.000006 -0.008723 -0.093836 -20.394900
0.000000 0.000000 0.000000 0.000000 0.000000 -0.000000 -0.061934 92.328800 -1.358810 87.954600 -0.104361 5.480520 15.735700 0.000005 -0.000001 86.428200 85.787500 -86.603300 8.984550 -0.406207 -0.000000 0.641964 -0.513815 -0.347084 16.377300 -0.000001 -0.000001 4.197010 -3.127270 2.956520 6.456720 -0.000001 -0.000000 7.784380 -3.869800 -1.639950 12.994200 -0.242716 4.980390 -89.588900 -1.290820 -72.331700 5.348090 -0.000007 -0.000001 -70.381200 38.470900 -11.593700 24.328600 0.000019 0.000005 1.529630 3.801460 -21.937500 22.291600 -0.000001 0.000005 5.654380 5.476560 -5.617190 12.994500 -0.242716 -4.980390 90.104400 -0.311734 -71.487000 -5.348130 -0.000001 -0.000004 -74.651600 -31.188100 -91.924500 -24.328900 0.000322 -0.000009 14.583400 0.866403 -86.675100 -22.291500 -0.000108 -0.000004 19.998200 5.324960 -0.639407 -2.192480 -6.469440 -0.000000 -175.524000 -6.942700 -1.935150 39.081100 -0.000007 -0.000012 -0.100620 0.234330 23.238500 40.985400 -0.000006 -0.000013 0.507244 4.880340 -66.106900 11.754300 -0.000000 0.000003 -0.000037 -0.000432 -16.594400 -2.192510 6.469440 -0.000001 179.319000 14.879300 -179.160000 -39.081100 -0.002282 -0.040193 -0.030548 0.094711 19.677500 -40.985400 0.000008 0.000006 3.586130 7.927080 -65.496900 -11.754300 -0.000006 -0.000006 -0.008732 -0.093905 -20.397700
0.000000 0.000000 0.000000 0.000000 0.000000 -0.000000 -0.028275 92.335100 -1.392110 87.947800 -0.101212 5.423560 15.735700 0.000005 -0.000001 86.261000 85.765300 -86.411300 8.984550 -0.406207 -0.000000 0.684651 -0.542815 -0.296951 16.377300 -0.000001 -0.000001 3.880980 -3.112510 2.918440 6.456720 -0.000001 -0.000000 7.648350 -3.733610 -1.801750 12.994200 -0.242716 4.980390 -89.599200 -1.260550 -72.357600 5.348090 -0.000007 -0.000001 -70.418100 38.482200 -11.623500 24.328600 0.000019 0.000005 1.532710 3.811260 -21.926400 22.291600 -0.000001 0.000005 5.633560 5.476020 -5.596980 12.994500 -0.242716 -4.980390 90.073000 -0.217165 -71.427900 -5.348130 -0.000001 -0.000004 -72.690400 -31.649100 -89.355400 -24.328900 0.000322 -0.000009 14.781200 0.479593 -88.184300 -22.291500 -0.000108 -0.000004 21.297000 5.325330 -0.649793 -2.192480 -6.469440 -0.000000 -175.585000 -6.868060 -2.039050 39.081100 -0.000007 -0.000012 -0.096438 0.224561 23.241300 40.985400 -0.000006 -0.000013 0.513294 4.729110 -66.067000 11.754300 -0.000000 0.000003 -0.000039 -0.000458 -16.595400 -2.192510 6.469440 -0.000001 179.327000 14.867200 -179.242000 -39.081100 -0.002282 -0.040193 -0.030522 0.094734 19.659300 -40.985400 0.000008 0.000006 3.593160 7.918160 -65.456300 -11.754300 -0.000006 -0.000006 -0.008548 -0.092451 -20.338400
